<?xml version="1.0" encoding="utf-8"?>
<!-- Generator: Adobe Illustrator 16.0.0, SVG Export Plug-In . SVG Version: 6.00 Build 0)  -->
<!DOCTYPE svg PUBLIC "-//W3C//DTD SVG 1.1//EN" "http://www.w3.org/Graphics/SVG/1.1/DTD/svg11.dtd">
<svg version="1.1" id="Layer_1" xmlns="http://www.w3.org/2000/svg" xmlns:xlink="http://www.w3.org/1999/xlink" x="0px" y="0px"
	 width="100px" height="100px" viewBox="0 0 100 100" enable-background="new 0 0 100 100" xml:space="preserve">
<g>
	<path fill="#333333" d="M90.395,90.395H9.605V9.605h80.791L90.395,90.395L90.395,90.395z M100,0H0v100h100V0z"/>
	<path fill="#333333" d="M24.294,24.294v9.605h12.429v29.944h10.17V33.899h6.78v29.944h10.734V33.899h11.865v-9.605H24.294z
		 M73.446,31.074H61.583v29.944h-5.084V31.074h-12.43v29.944h-4.52V31.074H27.12v-3.955h46.328L73.446,31.074L73.446,31.074z"/>
	<g>
		<path fill="#333333" d="M30.232,74.885c-0.326,0.369-0.729,0.665-1.209,0.891c-0.478,0.226-1.032,0.339-1.665,0.339
			c-0.589,0-1.123-0.098-1.602-0.291c-0.479-0.194-0.885-0.463-1.216-0.805c-0.332-0.341-0.586-0.752-0.764-1.232
			c-0.18-0.479-0.269-1.002-0.269-1.571c0-0.537,0.094-1.042,0.284-1.514c0.189-0.474,0.455-0.886,0.796-1.24
			c0.342-0.351,0.748-0.63,1.217-0.836c0.466-0.205,0.986-0.308,1.553-0.308c0.621,0,1.168,0.11,1.641,0.333
			c0.474,0.22,0.878,0.521,1.216,0.9l-0.933,0.898c-0.22-0.272-0.488-0.489-0.804-0.647c-0.315-0.158-0.689-0.236-1.12-0.236
			c-0.379,0-0.719,0.072-1.016,0.213c-0.3,0.141-0.553,0.337-0.759,0.583c-0.205,0.248-0.363,0.532-0.472,0.853
			c-0.11,0.32-0.166,0.655-0.166,1.001c0,0.337,0.055,0.667,0.166,0.987c0.111,0.32,0.269,0.605,0.472,0.852
			c0.207,0.249,0.459,0.446,0.759,0.592c0.298,0.148,0.637,0.221,1.016,0.221c0.431,0,0.819-0.08,1.16-0.244
			c0.343-0.163,0.624-0.382,0.846-0.655L30.232,74.885z"/>
		<path fill="#333333" d="M31.636,75.895v-6.628c0-0.231-0.006-0.468-0.016-0.71h1.356l0.049,1.184
			c0.083-0.128,0.194-0.265,0.332-0.418c0.137-0.152,0.302-0.291,0.497-0.417c0.194-0.126,0.42-0.234,0.679-0.324
			c0.258-0.09,0.554-0.134,0.89-0.134c0.159,0,0.304,0.01,0.435,0.03c0.13,0.022,0.255,0.053,0.371,0.096l-0.316,1.325
			c-0.19-0.074-0.432-0.109-0.727-0.109c-0.305,0-0.586,0.057-0.843,0.174c-0.258,0.115-0.481,0.276-0.671,0.479
			c-0.189,0.207-0.339,0.445-0.449,0.719c-0.112,0.274-0.167,0.562-0.167,0.867v3.866H31.636z"/>
		<path fill="#333333" d="M43.679,74.821c-0.085,0.095-0.211,0.215-0.38,0.364c-0.168,0.147-0.386,0.289-0.653,0.426
			c-0.27,0.135-0.584,0.253-0.947,0.355c-0.364,0.1-0.778,0.149-1.239,0.149c-0.568,0-1.09-0.094-1.562-0.284
			c-0.474-0.188-0.879-0.458-1.216-0.805c-0.336-0.346-0.597-0.763-0.78-1.248c-0.185-0.482-0.278-1.019-0.278-1.61
			c0-0.536,0.089-1.04,0.268-1.507c0.179-0.468,0.431-0.872,0.757-1.215c0.325-0.341,0.712-0.614,1.161-0.811
			c0.446-0.202,0.939-0.301,1.474-0.301c0.632,0,1.172,0.121,1.626,0.363c0.453,0.243,0.824,0.563,1.114,0.961
			c0.288,0.401,0.502,0.859,0.638,1.373c0.137,0.518,0.208,1.054,0.208,1.611h-5.794c0.011,0.325,0.081,0.625,0.215,0.898
			c0.13,0.275,0.306,0.511,0.528,0.71c0.22,0.202,0.472,0.358,0.756,0.473c0.285,0.115,0.583,0.175,0.899,0.175
			c0.621,0,1.132-0.104,1.531-0.316c0.401-0.208,0.688-0.415,0.867-0.615L43.679,74.821z M42.398,71.586
			c-0.042-0.568-0.241-1.051-0.599-1.453c-0.357-0.398-0.862-0.599-1.515-0.599c-0.338,0-0.639,0.059-0.908,0.174
			c-0.269,0.116-0.496,0.269-0.685,0.458c-0.19,0.189-0.338,0.409-0.442,0.654c-0.105,0.248-0.164,0.502-0.175,0.765H42.398z"/>
		<path fill="#333333" d="M50.037,75.012c-0.274,0.368-0.635,0.642-1.081,0.819C48.51,76.01,48.047,76.1,47.575,76.1
			c-0.305,0-0.607-0.038-0.908-0.118c-0.298-0.079-0.574-0.209-0.82-0.396c-0.247-0.182-0.447-0.42-0.6-0.708
			s-0.23-0.646-0.23-1.066c0-0.79,0.277-1.419,0.83-1.893c0.551-0.475,1.35-0.711,2.39-0.711c0.169,0,0.348,0.006,0.538,0.017
			c0.188,0.01,0.366,0.022,0.537,0.03c0.168,0.01,0.313,0.021,0.44,0.032c0.128,0.012,0.217,0.022,0.268,0.032v-0.269
			c0-0.548-0.166-0.939-0.495-1.176c-0.332-0.235-0.781-0.354-1.351-0.354c-0.558,0-0.998,0.077-1.326,0.229
			c-0.325,0.153-0.599,0.308-0.819,0.466l-0.663-0.964c0.127-0.105,0.278-0.211,0.458-0.316c0.178-0.105,0.387-0.202,0.63-0.292
			c0.241-0.09,0.516-0.163,0.821-0.221c0.305-0.058,0.657-0.086,1.056-0.086c0.946,0,1.691,0.23,2.234,0.687
			c0.541,0.458,0.812,1.107,0.812,1.949v4.278c0,0.252,0.004,0.469,0.015,0.647h-1.325L50.037,75.012z M50.02,72.422
			c-0.042-0.011-0.123-0.024-0.243-0.039c-0.121-0.018-0.26-0.029-0.419-0.04c-0.157-0.01-0.326-0.021-0.503-0.03
			c-0.179-0.012-0.353-0.018-0.521-0.018c-0.4,0-0.724,0.048-0.971,0.142c-0.247,0.095-0.443,0.214-0.584,0.356
			c-0.141,0.143-0.238,0.3-0.291,0.474c-0.054,0.174-0.079,0.338-0.079,0.498c0,0.399,0.135,0.702,0.41,0.906
			c0.272,0.207,0.651,0.309,1.135,0.309c0.274,0,0.534-0.049,0.781-0.142c0.247-0.097,0.465-0.221,0.654-0.379
			c0.19-0.157,0.342-0.341,0.458-0.551c0.115-0.211,0.172-0.426,0.172-0.647V72.422z"/>
		<path fill="#333333" d="M53.95,69.74h-1.325v-1.184h1.325v-2.399h1.421v2.399h2.148v1.184h-2.148v3.615
			c0,0.59,0.093,0.994,0.276,1.216c0.185,0.22,0.445,0.331,0.781,0.331c0.275,0,0.5-0.041,0.679-0.127
			c0.179-0.083,0.358-0.211,0.538-0.378l0.646,0.867c-0.306,0.297-0.618,0.509-0.938,0.64s-0.702,0.197-1.144,0.197
			c-0.777,0-1.35-0.208-1.712-0.63c-0.364-0.42-0.546-1.079-0.546-1.973V69.74z"/>
		<path fill="#333333" d="M59.348,65.652h1.595v1.594h-1.595V65.652z M59.443,68.557h1.418v7.338h-1.418V68.557z"/>
		<polygon fill="#333333" points="61.683,68.557 63.308,68.557 65.598,74.287 67.87,68.557 69.401,68.557 66.26,75.895 
			64.839,75.895 		"/>
		<path fill="#333333" d="M76.866,74.821c-0.085,0.095-0.211,0.215-0.379,0.364c-0.167,0.147-0.388,0.289-0.655,0.426
			c-0.267,0.135-0.583,0.253-0.946,0.355c-0.365,0.1-0.778,0.149-1.239,0.149c-0.569,0-1.09-0.094-1.562-0.284
			c-0.474-0.188-0.879-0.458-1.218-0.805c-0.335-0.346-0.596-0.763-0.78-1.248c-0.185-0.482-0.277-1.019-0.277-1.61
			c0-0.536,0.09-1.04,0.269-1.507c0.179-0.468,0.432-0.872,0.759-1.215c0.325-0.341,0.711-0.614,1.16-0.811
			c0.446-0.202,0.938-0.301,1.475-0.301c0.632,0,1.172,0.121,1.626,0.363c0.451,0.243,0.824,0.563,1.112,0.961
			c0.288,0.401,0.503,0.859,0.638,1.373c0.138,0.518,0.208,1.054,0.208,1.611h-5.794c0.01,0.325,0.082,0.625,0.214,0.898
			c0.131,0.275,0.307,0.511,0.527,0.71c0.221,0.202,0.474,0.358,0.757,0.473c0.284,0.115,0.583,0.175,0.9,0.175
			c0.621,0,1.131-0.104,1.529-0.316c0.402-0.208,0.689-0.415,0.868-0.615L76.866,74.821z M75.588,71.586
			c-0.043-0.568-0.243-1.051-0.6-1.453c-0.358-0.398-0.863-0.599-1.516-0.599c-0.337,0-0.64,0.059-0.908,0.174
			c-0.267,0.116-0.496,0.269-0.686,0.458c-0.19,0.189-0.338,0.409-0.443,0.654c-0.104,0.248-0.162,0.502-0.174,0.765H75.588z"/>
	</g>
</g>
</svg>
